<mxfile host="65bd71144e">
    <diagram id="4nc4NDxm57bIqMsg2Cto" name="Page-1">
        <mxGraphModel dx="942" dy="1856" grid="1" gridSize="10" guides="1" tooltips="1" connect="1" arrows="1" fold="1" page="1" pageScale="1" pageWidth="827" pageHeight="1169" background="none" math="0" shadow="0">
            <root>
                <mxCell id="0"/>
                <mxCell id="1" parent="0"/>
                <mxCell id="3" value="UserController" style="swimlane;fontStyle=1;align=center;verticalAlign=top;childLayout=stackLayout;horizontal=1;startSize=26;horizontalStack=0;resizeParent=1;resizeParentMax=0;resizeLast=0;collapsible=1;marginBottom=0;" parent="1" vertex="1">
                    <mxGeometry x="260" y="80" width="260" height="238" as="geometry"/>
                </mxCell>
                <mxCell id="4" value="- _instance: UserController" style="text;strokeColor=none;fillColor=none;align=left;verticalAlign=top;spacingLeft=4;spacingRight=4;overflow=hidden;rotatable=0;points=[[0,0.5],[1,0.5]];portConstraint=eastwest;fontStyle=4;" parent="3" vertex="1">
                    <mxGeometry y="26" width="260" height="26" as="geometry"/>
                </mxCell>
                <mxCell id="209" value="- loginCommand: ICommand&#10;- refreshAccessTokenCommand: ICommand&#10;- registerCommand: ICommand&#10;- logoutCommand: ICommand&#10;- getUserCommand: ICommand&#10;- getUserByEmailCommand: ICommand&#10;- getUsersCommand: ICommand&#10;- updateUserCommand: ICommand" style="text;strokeColor=none;fillColor=none;align=left;verticalAlign=top;spacingLeft=4;spacingRight=4;overflow=hidden;rotatable=0;points=[[0,0.5],[1,0.5]];portConstraint=eastwest;" parent="3" vertex="1">
                    <mxGeometry y="52" width="260" height="118" as="geometry"/>
                </mxCell>
                <mxCell id="5" value="" style="line;strokeWidth=1;fillColor=none;align=left;verticalAlign=middle;spacingTop=-1;spacingLeft=3;spacingRight=3;rotatable=0;labelPosition=right;points=[];portConstraint=eastwest;strokeColor=inherit;" parent="3" vertex="1">
                    <mxGeometry y="170" width="260" height="8" as="geometry"/>
                </mxCell>
                <mxCell id="6" value="- UserController()&#10;" style="text;strokeColor=none;fillColor=none;align=left;verticalAlign=top;spacingLeft=4;spacingRight=4;overflow=hidden;rotatable=0;points=[[0,0.5],[1,0.5]];portConstraint=eastwest;" parent="3" vertex="1">
                    <mxGeometry y="178" width="260" height="30" as="geometry"/>
                </mxCell>
                <mxCell id="12" value="+ getInstance()" style="text;strokeColor=none;fillColor=none;align=left;verticalAlign=top;spacingLeft=4;spacingRight=4;overflow=hidden;rotatable=0;points=[[0,0.5],[1,0.5]];portConstraint=eastwest;fontStyle=4;" parent="3" vertex="1">
                    <mxGeometry y="208" width="260" height="30" as="geometry"/>
                </mxCell>
                <mxCell id="19" value="&lt;p style=&quot;margin:0px;margin-top:4px;text-align:center;&quot;&gt;&lt;i&gt;&amp;lt;&amp;lt;Interface&amp;gt;&amp;gt;&lt;/i&gt;&lt;br&gt;&lt;b&gt;IUserController&lt;/b&gt;&lt;/p&gt;&lt;hr size=&quot;1&quot;&gt;&lt;p style=&quot;margin:0px;margin-left:4px;&quot;&gt;&lt;/p&gt;&lt;p style=&quot;margin:0px;margin-left:4px;&quot;&gt;+ login(req, res): Promise&amp;lt;void&amp;gt;&lt;br style=&quot;padding: 0px; margin: 0px;&quot;&gt;+ refreshAccessToken(req, res): Promise&amp;lt;void&amp;gt;&lt;br style=&quot;padding: 0px; margin: 0px;&quot;&gt;+ register(req, res): Promise&amp;lt;void&amp;gt;&lt;br style=&quot;padding: 0px; margin: 0px;&quot;&gt;+ logout(req, res): Promise&amp;lt;void&amp;gt;&lt;br style=&quot;padding: 0px; margin: 0px;&quot;&gt;+ getUser(req, res): Promise&amp;lt;void&amp;gt;&lt;br style=&quot;padding: 0px; margin: 0px;&quot;&gt;+ getUserByEmail(req, res): Promise&amp;lt;void&amp;gt;&lt;br style=&quot;padding: 0px; margin: 0px;&quot;&gt;+ updateUser(req, res): Promise&amp;lt;void&amp;gt;&lt;br style=&quot;padding: 0px; margin: 0px;&quot;&gt;+ followUser(req, res): Promise&amp;lt;void&amp;gt;&lt;/p&gt;" style="verticalAlign=top;align=left;overflow=fill;fontSize=12;fontFamily=Helvetica;html=1;" parent="1" vertex="1">
                    <mxGeometry x="580" y="358" width="260" height="170" as="geometry"/>
                </mxCell>
                <mxCell id="26" value="" style="edgeStyle=none;html=1;endArrow=block;endFill=0;endSize=8;dashed=1;" parent="1" source="3" target="19" edge="1">
                    <mxGeometry relative="1" as="geometry"/>
                </mxCell>
                <mxCell id="21" value="UserBuilder" style="swimlane;fontStyle=1;align=center;verticalAlign=top;childLayout=stackLayout;horizontal=1;startSize=26;horizontalStack=0;resizeParent=1;resizeParentMax=0;resizeLast=0;collapsible=1;marginBottom=0;" parent="1" vertex="1">
                    <mxGeometry x="310" y="370" width="160" height="168" as="geometry"/>
                </mxCell>
                <mxCell id="22" value="+ firstName: string&#10;+ lastName: string&#10;+ email: string&#10;+ passwordHash: string&#10;+ avatarUrl: string&#10;+ description: string" style="text;strokeColor=none;fillColor=none;align=left;verticalAlign=top;spacingLeft=4;spacingRight=4;overflow=hidden;rotatable=0;points=[[0,0.5],[1,0.5]];portConstraint=eastwest;" parent="21" vertex="1">
                    <mxGeometry y="26" width="160" height="94" as="geometry"/>
                </mxCell>
                <mxCell id="90" value="" style="line;strokeWidth=1;fillColor=none;align=left;verticalAlign=middle;spacingTop=-1;spacingLeft=3;spacingRight=3;rotatable=0;labelPosition=right;points=[];portConstraint=eastwest;strokeColor=inherit;" parent="21" vertex="1">
                    <mxGeometry y="120" width="160" height="8" as="geometry"/>
                </mxCell>
                <mxCell id="89" value="+ build(): IUserRegister&#10;+ buildUpdate(): IUserUpdate" style="text;strokeColor=none;fillColor=none;align=left;verticalAlign=top;spacingLeft=4;spacingRight=4;overflow=hidden;rotatable=0;points=[[0,0.5],[1,0.5]];portConstraint=eastwest;" parent="21" vertex="1">
                    <mxGeometry y="128" width="160" height="40" as="geometry"/>
                </mxCell>
                <mxCell id="25" value="" style="edgeStyle=none;html=1;dashed=1;endArrow=open;endFill=0;entryX=0.5;entryY=0;entryDx=0;entryDy=0;endSize=8;" parent="1" source="3" target="21" edge="1">
                    <mxGeometry relative="1" as="geometry"/>
                </mxCell>
                <mxCell id="27" value="&lt;p style=&quot;margin:0px;margin-top:4px;text-align:center;&quot;&gt;&lt;i&gt;&amp;lt;&amp;lt;Interface&amp;gt;&amp;gt;&lt;/i&gt;&lt;br&gt;&lt;b&gt;IUserBuilder&lt;/b&gt;&lt;/p&gt;&lt;hr size=&quot;1&quot;&gt;&lt;p style=&quot;margin:0px;margin-left:4px;&quot;&gt;+ setFirstName(firstName: string): UserBuilder&lt;/p&gt;&lt;p style=&quot;margin:0px;margin-left:4px;&quot;&gt;+ setLastName(lastName: string): UserBuilder&lt;/p&gt;&lt;p style=&quot;margin:0px;margin-left:4px;&quot;&gt;+ setEmail(email: string): UserBuilder&lt;/p&gt;&lt;p style=&quot;margin:0px;margin-left:4px;&quot;&gt;+ setPasswordHash(passwordHash: string): UserBuilder&lt;/p&gt;&lt;p style=&quot;margin:0px;margin-left:4px;&quot;&gt;+ setAvatarUrl(avatarUrl: string): UserBuilder&lt;/p&gt;&lt;p style=&quot;margin:0px;margin-left:4px;&quot;&gt;+ setDescription(description: string): UserBuilder&lt;/p&gt;&lt;p style=&quot;margin:0px;margin-left:4px;&quot;&gt;&lt;br&gt;&lt;/p&gt;&lt;p style=&quot;margin:0px;margin-left:4px;&quot;&gt;+ build(): IUserRegister&lt;/p&gt;&lt;p style=&quot;margin:0px;margin-left:4px;&quot;&gt;+ buildUpdate(): IUserUpdate&lt;/p&gt;" style="verticalAlign=top;align=left;overflow=fill;fontSize=12;fontFamily=Helvetica;html=1;" parent="1" vertex="1">
                    <mxGeometry x="235" y="610" width="310" height="186" as="geometry"/>
                </mxCell>
                <mxCell id="30" value="" style="edgeStyle=none;html=1;endArrow=block;endFill=0;dashed=1;endSize=8;" parent="1" source="21" target="27" edge="1">
                    <mxGeometry relative="1" as="geometry"/>
                </mxCell>
                <mxCell id="28" value="&lt;p style=&quot;margin:0px;margin-top:4px;text-align:center;&quot;&gt;&lt;i&gt;&amp;lt;&amp;lt;Interface&amp;gt;&amp;gt;&lt;/i&gt;&lt;br&gt;&lt;b&gt;IUserRegister&lt;/b&gt;&lt;/p&gt;&lt;hr size=&quot;1&quot;&gt;&lt;p style=&quot;margin:0px;margin-left:4px;&quot;&gt;+ firstName: string&lt;br&gt;+ lastName: string&lt;/p&gt;&lt;p style=&quot;margin:0px;margin-left:4px;&quot;&gt;+ email: string&lt;/p&gt;&lt;p style=&quot;margin:0px;margin-left:4px;&quot;&gt;+ passwordHash: string&lt;/p&gt;&lt;p style=&quot;margin:0px;margin-left:4px;&quot;&gt;+ avatarUrl: string;&lt;/p&gt;&lt;p style=&quot;margin:0px;margin-left:4px;&quot;&gt;+ description: string;&lt;/p&gt;" style="verticalAlign=top;align=left;overflow=fill;fontSize=12;fontFamily=Helvetica;html=1;" parent="1" vertex="1">
                    <mxGeometry x="640" y="631" width="190" height="144" as="geometry"/>
                </mxCell>
                <mxCell id="29" value="" style="edgeStyle=none;html=1;endArrow=block;endFill=0;endSize=8;" parent="1" source="27" target="28" edge="1">
                    <mxGeometry relative="1" as="geometry"/>
                </mxCell>
                <mxCell id="31" value="PostController" style="swimlane;fontStyle=1;align=center;verticalAlign=top;childLayout=stackLayout;horizontal=1;startSize=26;horizontalStack=0;resizeParent=1;resizeParentMax=0;resizeLast=0;collapsible=1;marginBottom=0;" parent="1" vertex="1">
                    <mxGeometry x="932.5" y="83" width="270" height="220" as="geometry"/>
                </mxCell>
                <mxCell id="32" value="- _instance: PostController" style="text;strokeColor=none;fillColor=none;align=left;verticalAlign=top;spacingLeft=4;spacingRight=4;overflow=hidden;rotatable=0;points=[[0,0.5],[1,0.5]];portConstraint=eastwest;fontStyle=4;" parent="31" vertex="1">
                    <mxGeometry y="26" width="270" height="26" as="geometry"/>
                </mxCell>
                <mxCell id="165" value="- createPostCommand: ICommand&#10;- createPostWithImageCommand: ICommand&#10;- updatePostCommand: ICommand&#10;- deletePostCommand: ICommand&#10;- getPostsCommand: ICommand&#10;- getPostCommand: ICommand&#10;- reactStrategyContext: ReactStrategyContext" style="text;strokeColor=none;fillColor=none;align=left;verticalAlign=top;spacingLeft=4;spacingRight=4;overflow=hidden;rotatable=0;points=[[0,0.5],[1,0.5]];portConstraint=eastwest;" parent="31" vertex="1">
                    <mxGeometry y="52" width="270" height="108" as="geometry"/>
                </mxCell>
                <mxCell id="33" value="" style="line;strokeWidth=1;fillColor=none;align=left;verticalAlign=middle;spacingTop=-1;spacingLeft=3;spacingRight=3;rotatable=0;labelPosition=right;points=[];portConstraint=eastwest;strokeColor=inherit;" parent="31" vertex="1">
                    <mxGeometry y="160" width="270" height="8" as="geometry"/>
                </mxCell>
                <mxCell id="34" value="- PostController()" style="text;strokeColor=none;fillColor=none;align=left;verticalAlign=top;spacingLeft=4;spacingRight=4;overflow=hidden;rotatable=0;points=[[0,0.5],[1,0.5]];portConstraint=eastwest;" parent="31" vertex="1">
                    <mxGeometry y="168" width="270" height="26" as="geometry"/>
                </mxCell>
                <mxCell id="36" value="+ getInstance()" style="text;strokeColor=none;fillColor=none;align=left;verticalAlign=top;spacingLeft=4;spacingRight=4;overflow=hidden;rotatable=0;points=[[0,0.5],[1,0.5]];portConstraint=eastwest;fontStyle=4;" parent="31" vertex="1">
                    <mxGeometry y="194" width="270" height="26" as="geometry"/>
                </mxCell>
                <mxCell id="160" style="html=1;rounded=0;endSize=8;exitX=1;exitY=0.5;exitDx=0;exitDy=0;entryX=0;entryY=0.5;entryDx=0;entryDy=0;" parent="1" source="209" target="165" edge="1">
                    <mxGeometry relative="1" as="geometry">
                        <mxPoint x="890" y="191" as="targetPoint"/>
                    </mxGeometry>
                </mxCell>
                <mxCell id="163" value="1" style="edgeLabel;html=1;align=center;verticalAlign=middle;resizable=0;points=[];" connectable="0" vertex="1" parent="160">
                    <mxGeometry x="-0.0946" relative="1" as="geometry">
                        <mxPoint x="-176" y="10" as="offset"/>
                    </mxGeometry>
                </mxCell>
                <mxCell id="164" value="0..*" style="edgeLabel;html=1;align=center;verticalAlign=middle;resizable=0;points=[];" parent="160" vertex="1" connectable="0">
                    <mxGeometry x="0.9247" relative="1" as="geometry">
                        <mxPoint x="3" y="20" as="offset"/>
                    </mxGeometry>
                </mxCell>
                <mxCell id="35" value="&lt;p style=&quot;margin:0px;margin-top:4px;text-align:center;&quot;&gt;&lt;i&gt;&amp;lt;&amp;lt;Interface&amp;gt;&amp;gt;&lt;/i&gt;&lt;br&gt;&lt;b&gt;IPostController&lt;/b&gt;&lt;/p&gt;&lt;hr size=&quot;1&quot;&gt;&lt;p style=&quot;margin:0px;margin-left:4px;&quot;&gt;+ createPost(req, res): Promise&amp;lt;void&amp;gt;&lt;br&gt;&lt;/p&gt;&lt;p style=&quot;margin:0px;margin-left:4px;&quot;&gt;+ createPostWithImage(req, res): Promise&amp;lt;void&amp;gt;&lt;/p&gt;&lt;p style=&quot;margin:0px;margin-left:4px;&quot;&gt;+ getPosts(req, res): Promise&amp;lt;void&amp;gt;&lt;/p&gt;&lt;p style=&quot;margin:0px;margin-left:4px;&quot;&gt;+ getPost(req, res): Promise&amp;lt;void&amp;gt;&lt;/p&gt;&lt;p style=&quot;margin:0px;margin-left:4px;&quot;&gt;+ updatePost(req, res): Promise&amp;lt;void&amp;gt;&lt;/p&gt;&lt;p style=&quot;margin:0px;margin-left:4px;&quot;&gt;+ deletePost(req, res): Promise&amp;lt;void&amp;gt;&lt;/p&gt;" style="verticalAlign=top;align=left;overflow=fill;fontSize=12;fontFamily=Helvetica;html=1;" parent="1" vertex="1">
                    <mxGeometry x="1302.5" y="123" width="270" height="140" as="geometry"/>
                </mxCell>
                <mxCell id="37" value="" style="edgeStyle=none;html=1;endArrow=block;endFill=0;endSize=8;dashed=1;" parent="1" source="31" target="35" edge="1">
                    <mxGeometry relative="1" as="geometry"/>
                </mxCell>
                <mxCell id="38" value="PostDecorator" style="swimlane;fontStyle=1;align=center;verticalAlign=top;childLayout=stackLayout;horizontal=1;startSize=26;horizontalStack=0;resizeParent=1;resizeParentMax=0;resizeLast=0;collapsible=1;marginBottom=0;" parent="1" vertex="1">
                    <mxGeometry x="1397.5" y="-547" width="180" height="70" as="geometry"/>
                </mxCell>
                <mxCell id="41" value="+ decorateText(content: string)&#10;+ simplifyText(content: string)" style="text;strokeColor=none;fillColor=none;align=left;verticalAlign=top;spacingLeft=4;spacingRight=4;overflow=hidden;rotatable=0;points=[[0,0.5],[1,0.5]];portConstraint=eastwest;" parent="38" vertex="1">
                    <mxGeometry y="26" width="180" height="44" as="geometry"/>
                </mxCell>
                <mxCell id="48" value="PostFacade" style="swimlane;fontStyle=1;align=center;verticalAlign=top;childLayout=stackLayout;horizontal=1;startSize=26;horizontalStack=0;resizeParent=1;resizeParentMax=0;resizeLast=0;collapsible=1;marginBottom=0;" parent="1" vertex="1">
                    <mxGeometry x="1677.5" y="-550" width="180" height="70" as="geometry"/>
                </mxCell>
                <mxCell id="49" value="+ decorateText(content: string)&#10;+ simplifyText(content: string)" style="text;strokeColor=none;fillColor=none;align=left;verticalAlign=top;spacingLeft=4;spacingRight=4;overflow=hidden;rotatable=0;points=[[0,0.5],[1,0.5]];portConstraint=eastwest;" parent="48" vertex="1">
                    <mxGeometry y="26" width="180" height="44" as="geometry"/>
                </mxCell>
                <mxCell id="70" value="" style="edgeStyle=none;html=1;endArrow=open;endFill=0;dashed=1;entryX=-0.016;entryY=0.265;entryDx=0;entryDy=0;entryPerimeter=0;endSize=8;" parent="1" source="38" target="49" edge="1">
                    <mxGeometry relative="1" as="geometry">
                        <mxPoint x="1667.5" y="-512" as="targetPoint"/>
                    </mxGeometry>
                </mxCell>
                <mxCell id="51" value="&lt;p style=&quot;margin:0px;margin-top:4px;text-align:center;&quot;&gt;&lt;i&gt;&amp;lt;&amp;lt;Interface&amp;gt;&amp;gt;&lt;/i&gt;&lt;br&gt;&lt;b&gt;ITextEditor&lt;/b&gt;&lt;/p&gt;&lt;hr size=&quot;1&quot;&gt;&lt;p style=&quot;margin:0px;margin-left:4px;&quot;&gt;+ decorate(text: string): void;&lt;/p&gt;&lt;p style=&quot;margin:0px;margin-left:4px;&quot;&gt;+ getText(): string;&lt;/p&gt;&lt;p style=&quot;margin:0px;margin-left:4px;&quot;&gt;&lt;br&gt;&lt;/p&gt;&lt;p style=&quot;margin:0px;margin-left:4px;&quot;&gt;+ getStartTag(): string;&lt;/p&gt;&lt;p style=&quot;margin:0px;margin-left:4px;&quot;&gt;+ getEndTag(): string;&lt;/p&gt;&lt;p style=&quot;margin:0px;margin-left:4px;&quot;&gt;+ getDecoratorTag(): string;&lt;/p&gt;" style="verticalAlign=top;align=left;overflow=fill;fontSize=12;fontFamily=Helvetica;html=1;" parent="1" vertex="1">
                    <mxGeometry x="1307.5" y="-292" width="190" height="140" as="geometry"/>
                </mxCell>
                <mxCell id="54" value="&lt;p style=&quot;margin:0px;margin-top:4px;text-align:center;&quot;&gt;&lt;i&gt;&amp;lt;&amp;lt;Interface&amp;gt;&amp;gt;&lt;/i&gt;&lt;br&gt;&lt;b&gt;ITextSimplify&lt;/b&gt;&lt;/p&gt;&lt;hr size=&quot;1&quot;&gt;&lt;p style=&quot;margin:0px;margin-left:4px;&quot;&gt;+ simplify(text: string): void;&lt;/p&gt;&lt;p style=&quot;margin:0px;margin-left:4px;&quot;&gt;+ getText(): string;&lt;/p&gt;&lt;p style=&quot;margin:0px;margin-left:4px;&quot;&gt;&lt;br&gt;&lt;/p&gt;&lt;p style=&quot;margin:0px;margin-left:4px;&quot;&gt;+ getStartTag(): string;&lt;/p&gt;&lt;p style=&quot;margin:0px;margin-left:4px;&quot;&gt;+ getEndTag(): string;&lt;/p&gt;&lt;p style=&quot;margin:0px;margin-left:4px;&quot;&gt;+ getDecoratorTag(): string;&lt;/p&gt;" style="verticalAlign=top;align=left;overflow=fill;fontSize=12;fontFamily=Helvetica;html=1;" parent="1" vertex="1">
                    <mxGeometry x="1802.5" y="-296" width="190" height="140" as="geometry"/>
                </mxCell>
                <mxCell id="64" value="" style="edgeStyle=none;html=1;endArrow=block;endFill=0;endSize=8;dashed=1;" parent="1" source="59" target="51" edge="1">
                    <mxGeometry relative="1" as="geometry"/>
                </mxCell>
                <mxCell id="59" value="BasicTextEditor" style="swimlane;fontStyle=1;align=center;verticalAlign=top;childLayout=stackLayout;horizontal=1;startSize=26;horizontalStack=0;resizeParent=1;resizeParentMax=0;resizeLast=0;collapsible=1;marginBottom=0;" parent="1" vertex="1">
                    <mxGeometry x="1322.5" y="-432" width="160" height="86" as="geometry"/>
                </mxCell>
                <mxCell id="60" value="- text: string" style="text;strokeColor=none;fillColor=none;align=left;verticalAlign=top;spacingLeft=4;spacingRight=4;overflow=hidden;rotatable=0;points=[[0,0.5],[1,0.5]];portConstraint=eastwest;" parent="59" vertex="1">
                    <mxGeometry y="26" width="160" height="26" as="geometry"/>
                </mxCell>
                <mxCell id="61" value="" style="line;strokeWidth=1;fillColor=none;align=left;verticalAlign=middle;spacingTop=-1;spacingLeft=3;spacingRight=3;rotatable=0;labelPosition=right;points=[];portConstraint=eastwest;strokeColor=inherit;" parent="59" vertex="1">
                    <mxGeometry y="52" width="160" height="8" as="geometry"/>
                </mxCell>
                <mxCell id="62" value="+ BasicTextEditor()" style="text;strokeColor=none;fillColor=none;align=left;verticalAlign=top;spacingLeft=4;spacingRight=4;overflow=hidden;rotatable=0;points=[[0,0.5],[1,0.5]];portConstraint=eastwest;" parent="59" vertex="1">
                    <mxGeometry y="60" width="160" height="26" as="geometry"/>
                </mxCell>
                <mxCell id="63" value="" style="edgeStyle=none;html=1;dashed=1;endArrow=open;endFill=0;entryX=1;entryY=0.5;entryDx=0;entryDy=0;endSize=8;" parent="1" source="48" target="60" edge="1">
                    <mxGeometry relative="1" as="geometry"/>
                </mxCell>
                <mxCell id="69" value="" style="edgeStyle=none;html=1;endArrow=block;endFill=0;endSize=8;dashed=1;" parent="1" source="65" target="51" edge="1">
                    <mxGeometry relative="1" as="geometry"/>
                </mxCell>
                <mxCell id="65" value="TextDecorator" style="swimlane;fontStyle=3;align=center;verticalAlign=top;childLayout=stackLayout;horizontal=1;startSize=26;horizontalStack=0;resizeParent=1;resizeParentMax=0;resizeLast=0;collapsible=1;marginBottom=0;" parent="1" vertex="1">
                    <mxGeometry x="1290" y="-78" width="225" height="86" as="geometry"/>
                </mxCell>
                <mxCell id="66" value="# textEditor: ITextEditor" style="text;strokeColor=none;fillColor=none;align=left;verticalAlign=top;spacingLeft=4;spacingRight=4;overflow=hidden;rotatable=0;points=[[0,0.5],[1,0.5]];portConstraint=eastwest;" parent="65" vertex="1">
                    <mxGeometry y="26" width="225" height="26" as="geometry"/>
                </mxCell>
                <mxCell id="67" value="" style="line;strokeWidth=1;fillColor=none;align=left;verticalAlign=middle;spacingTop=-1;spacingLeft=3;spacingRight=3;rotatable=0;labelPosition=right;points=[];portConstraint=eastwest;strokeColor=inherit;" parent="65" vertex="1">
                    <mxGeometry y="52" width="225" height="8" as="geometry"/>
                </mxCell>
                <mxCell id="68" value="+ TextDecorator(textEditor: ITextEditor)" style="text;strokeColor=none;fillColor=none;align=left;verticalAlign=top;spacingLeft=4;spacingRight=4;overflow=hidden;rotatable=0;points=[[0,0.5],[1,0.5]];portConstraint=eastwest;" parent="65" vertex="1">
                    <mxGeometry y="60" width="225" height="26" as="geometry"/>
                </mxCell>
                <mxCell id="72" value="" style="edgeStyle=none;html=1;endArrow=block;endFill=0;entryX=0.5;entryY=0;entryDx=0;entryDy=0;endSize=8;dashed=1;" parent="1" source="73" target="54" edge="1">
                    <mxGeometry relative="1" as="geometry">
                        <mxPoint x="2117.5" y="-223" as="targetPoint"/>
                    </mxGeometry>
                </mxCell>
                <mxCell id="73" value="BasicTextEditorSimplify" style="swimlane;fontStyle=1;align=center;verticalAlign=top;childLayout=stackLayout;horizontal=1;startSize=26;horizontalStack=0;resizeParent=1;resizeParentMax=0;resizeLast=0;collapsible=1;marginBottom=0;" parent="1" vertex="1">
                    <mxGeometry x="1817.5" y="-432" width="160" height="86" as="geometry"/>
                </mxCell>
                <mxCell id="74" value="- text: string" style="text;strokeColor=none;fillColor=none;align=left;verticalAlign=top;spacingLeft=4;spacingRight=4;overflow=hidden;rotatable=0;points=[[0,0.5],[1,0.5]];portConstraint=eastwest;" parent="73" vertex="1">
                    <mxGeometry y="26" width="160" height="26" as="geometry"/>
                </mxCell>
                <mxCell id="75" value="" style="line;strokeWidth=1;fillColor=none;align=left;verticalAlign=middle;spacingTop=-1;spacingLeft=3;spacingRight=3;rotatable=0;labelPosition=right;points=[];portConstraint=eastwest;strokeColor=inherit;" parent="73" vertex="1">
                    <mxGeometry y="52" width="160" height="8" as="geometry"/>
                </mxCell>
                <mxCell id="76" value="+ BasicTextEditorSimplify()" style="text;strokeColor=none;fillColor=none;align=left;verticalAlign=top;spacingLeft=4;spacingRight=4;overflow=hidden;rotatable=0;points=[[0,0.5],[1,0.5]];portConstraint=eastwest;" parent="73" vertex="1">
                    <mxGeometry y="60" width="160" height="26" as="geometry"/>
                </mxCell>
                <mxCell id="82" value="" style="edgeStyle=none;html=1;dashed=1;endArrow=open;endFill=0;entryX=0.5;entryY=0;entryDx=0;entryDy=0;endSize=8;" parent="1" source="48" target="73" edge="1">
                    <mxGeometry relative="1" as="geometry"/>
                </mxCell>
                <mxCell id="77" value="" style="edgeStyle=none;html=1;endArrow=block;endFill=0;entryX=0.5;entryY=1;entryDx=0;entryDy=0;endSize=8;dashed=1;" parent="1" source="78" target="54" edge="1">
                    <mxGeometry relative="1" as="geometry">
                        <mxPoint x="2212.5" y="-153" as="targetPoint"/>
                    </mxGeometry>
                </mxCell>
                <mxCell id="78" value="TextSimplify" style="swimlane;fontStyle=3;align=center;verticalAlign=top;childLayout=stackLayout;horizontal=1;startSize=26;horizontalStack=0;resizeParent=1;resizeParentMax=0;resizeLast=0;collapsible=1;marginBottom=0;" parent="1" vertex="1">
                    <mxGeometry x="1785" y="-78" width="225" height="86" as="geometry"/>
                </mxCell>
                <mxCell id="79" value="# textEditor: ITextSimplify" style="text;strokeColor=none;fillColor=none;align=left;verticalAlign=top;spacingLeft=4;spacingRight=4;overflow=hidden;rotatable=0;points=[[0,0.5],[1,0.5]];portConstraint=eastwest;" parent="78" vertex="1">
                    <mxGeometry y="26" width="225" height="26" as="geometry"/>
                </mxCell>
                <mxCell id="80" value="" style="line;strokeWidth=1;fillColor=none;align=left;verticalAlign=middle;spacingTop=-1;spacingLeft=3;spacingRight=3;rotatable=0;labelPosition=right;points=[];portConstraint=eastwest;strokeColor=inherit;" parent="78" vertex="1">
                    <mxGeometry y="52" width="225" height="8" as="geometry"/>
                </mxCell>
                <mxCell id="81" value="+ TextSimplify(textEditor: ITextSimplify)" style="text;strokeColor=none;fillColor=none;align=left;verticalAlign=top;spacingLeft=4;spacingRight=4;overflow=hidden;rotatable=0;points=[[0,0.5],[1,0.5]];portConstraint=eastwest;" parent="78" vertex="1">
                    <mxGeometry y="60" width="225" height="26" as="geometry"/>
                </mxCell>
                <mxCell id="149" style="edgeStyle=orthogonalEdgeStyle;rounded=0;html=1;entryX=1;entryY=0.5;entryDx=0;entryDy=0;endArrow=block;endFill=0;endSize=8;" parent="1" source="84" target="66" edge="1">
                    <mxGeometry relative="1" as="geometry">
                        <Array as="points">
                            <mxPoint x="1537.5" y="-361"/>
                            <mxPoint x="1537.5" y="-39"/>
                        </Array>
                    </mxGeometry>
                </mxCell>
                <mxCell id="84" value="BoldTextDecorator" style="swimlane;fontStyle=1;align=center;verticalAlign=top;childLayout=stackLayout;horizontal=1;startSize=26;horizontalStack=0;resizeParent=1;resizeParentMax=0;resizeLast=0;collapsible=1;marginBottom=0;" parent="1" vertex="1">
                    <mxGeometry x="1567.5" y="-387" width="160" height="52" as="geometry"/>
                </mxCell>
                <mxCell id="87" value="+ method(type): type" style="text;strokeColor=none;fillColor=none;align=left;verticalAlign=top;spacingLeft=4;spacingRight=4;overflow=hidden;rotatable=0;points=[[0,0.5],[1,0.5]];portConstraint=eastwest;" parent="84" vertex="1">
                    <mxGeometry y="26" width="160" height="26" as="geometry"/>
                </mxCell>
                <mxCell id="143" style="edgeStyle=orthogonalEdgeStyle;rounded=0;html=1;entryX=1;entryY=0.5;entryDx=0;entryDy=0;endArrow=open;endFill=0;endSize=8;dashed=1;" parent="1" source="48" target="84" edge="1">
                    <mxGeometry relative="1" as="geometry"/>
                </mxCell>
                <mxCell id="151" style="edgeStyle=orthogonalEdgeStyle;rounded=0;html=1;endArrow=block;endFill=0;endSize=8;" parent="1" source="102" edge="1">
                    <mxGeometry relative="1" as="geometry">
                        <mxPoint x="1537.5" y="-232" as="targetPoint"/>
                    </mxGeometry>
                </mxCell>
                <mxCell id="102" value="DeletedTextDecorator" style="swimlane;fontStyle=1;align=center;verticalAlign=top;childLayout=stackLayout;horizontal=1;startSize=26;horizontalStack=0;resizeParent=1;resizeParentMax=0;resizeLast=0;collapsible=1;marginBottom=0;" parent="1" vertex="1">
                    <mxGeometry x="1567.5" y="-307" width="160" height="52" as="geometry"/>
                </mxCell>
                <mxCell id="103" value="+ method(type): type" style="text;strokeColor=none;fillColor=none;align=left;verticalAlign=top;spacingLeft=4;spacingRight=4;overflow=hidden;rotatable=0;points=[[0,0.5],[1,0.5]];portConstraint=eastwest;" parent="102" vertex="1">
                    <mxGeometry y="26" width="160" height="26" as="geometry"/>
                </mxCell>
                <mxCell id="144" style="edgeStyle=orthogonalEdgeStyle;rounded=0;html=1;entryX=1;entryY=0.5;entryDx=0;entryDy=0;endArrow=open;endFill=0;endSize=8;dashed=1;" parent="1" source="48" target="102" edge="1">
                    <mxGeometry relative="1" as="geometry"/>
                </mxCell>
                <mxCell id="152" style="edgeStyle=orthogonalEdgeStyle;rounded=0;html=1;endArrow=block;endFill=0;endSize=8;" parent="1" source="109" edge="1">
                    <mxGeometry relative="1" as="geometry">
                        <mxPoint x="1537.5" y="-152" as="targetPoint"/>
                    </mxGeometry>
                </mxCell>
                <mxCell id="109" value="ItalicTextDecorator" style="swimlane;fontStyle=1;align=center;verticalAlign=top;childLayout=stackLayout;horizontal=1;startSize=26;horizontalStack=0;resizeParent=1;resizeParentMax=0;resizeLast=0;collapsible=1;marginBottom=0;" parent="1" vertex="1">
                    <mxGeometry x="1567.5" y="-227" width="160" height="52" as="geometry"/>
                </mxCell>
                <mxCell id="110" value="+ method(type): type" style="text;strokeColor=none;fillColor=none;align=left;verticalAlign=top;spacingLeft=4;spacingRight=4;overflow=hidden;rotatable=0;points=[[0,0.5],[1,0.5]];portConstraint=eastwest;" parent="109" vertex="1">
                    <mxGeometry y="26" width="160" height="26" as="geometry"/>
                </mxCell>
                <mxCell id="145" style="edgeStyle=orthogonalEdgeStyle;rounded=0;html=1;entryX=1;entryY=0.5;entryDx=0;entryDy=0;endArrow=open;endFill=0;endSize=8;dashed=1;" parent="1" source="48" target="109" edge="1">
                    <mxGeometry relative="1" as="geometry"/>
                </mxCell>
                <mxCell id="153" style="edgeStyle=orthogonalEdgeStyle;rounded=0;html=1;endArrow=block;endFill=0;endSize=8;" parent="1" source="116" edge="1">
                    <mxGeometry relative="1" as="geometry">
                        <mxPoint x="1537.4999999999998" y="-82" as="targetPoint"/>
                    </mxGeometry>
                </mxCell>
                <mxCell id="116" value="ParagraphDecorator" style="swimlane;fontStyle=1;align=center;verticalAlign=top;childLayout=stackLayout;horizontal=1;startSize=26;horizontalStack=0;resizeParent=1;resizeParentMax=0;resizeLast=0;collapsible=1;marginBottom=0;" parent="1" vertex="1">
                    <mxGeometry x="1567.5" y="-139" width="160" height="52" as="geometry"/>
                </mxCell>
                <mxCell id="117" value="+ method(type): type" style="text;strokeColor=none;fillColor=none;align=left;verticalAlign=top;spacingLeft=4;spacingRight=4;overflow=hidden;rotatable=0;points=[[0,0.5],[1,0.5]];portConstraint=eastwest;" parent="116" vertex="1">
                    <mxGeometry y="26" width="160" height="26" as="geometry"/>
                </mxCell>
                <mxCell id="146" style="edgeStyle=orthogonalEdgeStyle;rounded=0;html=1;entryX=1;entryY=0.5;entryDx=0;entryDy=0;endArrow=open;endFill=0;endSize=8;dashed=1;" parent="1" source="48" target="116" edge="1">
                    <mxGeometry relative="1" as="geometry"/>
                </mxCell>
                <mxCell id="157" style="edgeStyle=orthogonalEdgeStyle;rounded=0;html=1;endArrow=block;endFill=0;endSize=8;" parent="1" source="132" edge="1">
                    <mxGeometry relative="1" as="geometry">
                        <mxPoint x="2037.5" y="-82" as="targetPoint"/>
                    </mxGeometry>
                </mxCell>
                <mxCell id="132" value="ParagraphSimplify" style="swimlane;fontStyle=1;align=center;verticalAlign=top;childLayout=stackLayout;horizontal=1;startSize=26;horizontalStack=0;resizeParent=1;resizeParentMax=0;resizeLast=0;collapsible=1;marginBottom=0;" parent="1" vertex="1">
                    <mxGeometry x="2067.5" y="-164" width="160" height="52" as="geometry"/>
                </mxCell>
                <mxCell id="133" value="+ method(type): type" style="text;strokeColor=none;fillColor=none;align=left;verticalAlign=top;spacingLeft=4;spacingRight=4;overflow=hidden;rotatable=0;points=[[0,0.5],[1,0.5]];portConstraint=eastwest;" parent="132" vertex="1">
                    <mxGeometry y="26" width="160" height="26" as="geometry"/>
                </mxCell>
                <mxCell id="148" style="edgeStyle=orthogonalEdgeStyle;rounded=0;html=1;entryX=1;entryY=0.5;entryDx=0;entryDy=0;dashed=1;endArrow=open;endFill=0;endSize=8;" parent="1" source="48" target="132" edge="1">
                    <mxGeometry relative="1" as="geometry">
                        <Array as="points">
                            <mxPoint x="2277.5" y="-515"/>
                            <mxPoint x="2277.5" y="-138"/>
                        </Array>
                    </mxGeometry>
                </mxCell>
                <mxCell id="156" style="edgeStyle=orthogonalEdgeStyle;rounded=0;html=1;endArrow=block;endFill=0;endSize=8;" parent="1" source="134" edge="1">
                    <mxGeometry relative="1" as="geometry">
                        <mxPoint x="2037.5" y="-172" as="targetPoint"/>
                    </mxGeometry>
                </mxCell>
                <mxCell id="134" value="ItalicTextSimplify" style="swimlane;fontStyle=1;align=center;verticalAlign=top;childLayout=stackLayout;horizontal=1;startSize=26;horizontalStack=0;resizeParent=1;resizeParentMax=0;resizeLast=0;collapsible=1;marginBottom=0;" parent="1" vertex="1">
                    <mxGeometry x="2067.5" y="-248" width="160" height="52" as="geometry"/>
                </mxCell>
                <mxCell id="135" value="+ method(type): type" style="text;strokeColor=none;fillColor=none;align=left;verticalAlign=top;spacingLeft=4;spacingRight=4;overflow=hidden;rotatable=0;points=[[0,0.5],[1,0.5]];portConstraint=eastwest;" parent="134" vertex="1">
                    <mxGeometry y="26" width="160" height="26" as="geometry"/>
                </mxCell>
                <mxCell id="147" style="edgeStyle=orthogonalEdgeStyle;rounded=0;html=1;entryX=1;entryY=0.5;entryDx=0;entryDy=0;dashed=1;endArrow=open;endFill=0;endSize=8;" parent="1" source="48" target="134" edge="1">
                    <mxGeometry relative="1" as="geometry">
                        <Array as="points">
                            <mxPoint x="2277.5" y="-515"/>
                            <mxPoint x="2277.5" y="-222"/>
                        </Array>
                    </mxGeometry>
                </mxCell>
                <mxCell id="155" style="edgeStyle=orthogonalEdgeStyle;rounded=0;html=1;endArrow=block;endFill=0;endSize=8;" parent="1" source="136" edge="1">
                    <mxGeometry relative="1" as="geometry">
                        <mxPoint x="2037.5" y="-252" as="targetPoint"/>
                    </mxGeometry>
                </mxCell>
                <mxCell id="136" value="DeletedTextSimplify" style="swimlane;fontStyle=1;align=center;verticalAlign=top;childLayout=stackLayout;horizontal=1;startSize=26;horizontalStack=0;resizeParent=1;resizeParentMax=0;resizeLast=0;collapsible=1;marginBottom=0;" parent="1" vertex="1">
                    <mxGeometry x="2067.5" y="-332" width="160" height="52" as="geometry"/>
                </mxCell>
                <mxCell id="137" value="+ method(type): type" style="text;strokeColor=none;fillColor=none;align=left;verticalAlign=top;spacingLeft=4;spacingRight=4;overflow=hidden;rotatable=0;points=[[0,0.5],[1,0.5]];portConstraint=eastwest;" parent="136" vertex="1">
                    <mxGeometry y="26" width="160" height="26" as="geometry"/>
                </mxCell>
                <mxCell id="141" style="edgeStyle=orthogonalEdgeStyle;rounded=0;html=1;endArrow=open;endFill=0;endSize=8;entryX=1;entryY=0.5;entryDx=0;entryDy=0;dashed=1;" parent="1" source="48" target="136" edge="1">
                    <mxGeometry relative="1" as="geometry">
                        <mxPoint x="2017.5" y="-302" as="targetPoint"/>
                        <Array as="points">
                            <mxPoint x="2277.5" y="-515"/>
                            <mxPoint x="2277.5" y="-306"/>
                        </Array>
                    </mxGeometry>
                </mxCell>
                <mxCell id="154" style="edgeStyle=orthogonalEdgeStyle;rounded=0;html=1;entryX=1;entryY=0.5;entryDx=0;entryDy=0;endArrow=block;endFill=0;endSize=8;" parent="1" source="138" target="79" edge="1">
                    <mxGeometry relative="1" as="geometry">
                        <Array as="points">
                            <mxPoint x="2037.5" y="-386"/>
                            <mxPoint x="2037.5" y="-39"/>
                        </Array>
                    </mxGeometry>
                </mxCell>
                <mxCell id="138" value="BoldTextSimplify" style="swimlane;fontStyle=1;align=center;verticalAlign=top;childLayout=stackLayout;horizontal=1;startSize=26;horizontalStack=0;resizeParent=1;resizeParentMax=0;resizeLast=0;collapsible=1;marginBottom=0;" parent="1" vertex="1">
                    <mxGeometry x="2067.5" y="-412" width="160" height="52" as="geometry"/>
                </mxCell>
                <mxCell id="139" value="+ method(type): type" style="text;strokeColor=none;fillColor=none;align=left;verticalAlign=top;spacingLeft=4;spacingRight=4;overflow=hidden;rotatable=0;points=[[0,0.5],[1,0.5]];portConstraint=eastwest;" parent="138" vertex="1">
                    <mxGeometry y="26" width="160" height="26" as="geometry"/>
                </mxCell>
                <mxCell id="140" style="edgeStyle=orthogonalEdgeStyle;rounded=0;html=1;entryX=1;entryY=0.5;entryDx=0;entryDy=0;endArrow=open;endFill=0;endSize=8;dashed=1;" parent="1" source="48" target="138" edge="1">
                    <mxGeometry relative="1" as="geometry">
                        <Array as="points">
                            <mxPoint x="2277.5" y="-515"/>
                            <mxPoint x="2277.5" y="-386"/>
                        </Array>
                    </mxGeometry>
                </mxCell>
                <mxCell id="166" value="&lt;p style=&quot;margin:0px;margin-top:4px;text-align:center;&quot;&gt;&lt;i&gt;&amp;lt;&amp;lt;Interface&amp;gt;&amp;gt;&lt;/i&gt;&lt;br&gt;&lt;b&gt;ICommand&lt;/b&gt;&lt;/p&gt;&lt;hr size=&quot;1&quot;&gt;&lt;p style=&quot;margin:0px;margin-left:4px;&quot;&gt;+ execute(req, res): Promise&amp;lt;void&amp;gt;&lt;br&gt;&lt;/p&gt;" style="verticalAlign=top;align=left;overflow=fill;fontSize=12;fontFamily=Helvetica;html=1;" parent="1" vertex="1">
                    <mxGeometry x="620" y="-510" width="210" height="70" as="geometry"/>
                </mxCell>
                <mxCell id="196" style="edgeStyle=orthogonalEdgeStyle;rounded=0;html=1;dashed=1;endArrow=block;endFill=0;strokeWidth=1;entryX=1;entryY=0.5;entryDx=0;entryDy=0;endSize=8;" parent="1" source="167" target="166" edge="1">
                    <mxGeometry relative="1" as="geometry">
                        <mxPoint x="1220" y="-475" as="targetPoint"/>
                    </mxGeometry>
                </mxCell>
                <mxCell id="326" style="edgeStyle=orthogonalEdgeStyle;rounded=0;html=1;entryX=0;entryY=0.25;entryDx=0;entryDy=0;strokeColor=#B20000;strokeWidth=1;startArrow=diamondThin;startFill=1;endArrow=open;endFill=0;startSize=10;endSize=8;targetPerimeterSpacing=0;fillColor=#e51400;" parent="1" source="167" target="38" edge="1">
                    <mxGeometry relative="1" as="geometry">
                        <Array as="points">
                            <mxPoint x="1023" y="-530"/>
                        </Array>
                    </mxGeometry>
                </mxCell>
                <mxCell id="349" style="edgeStyle=orthogonalEdgeStyle;rounded=0;html=1;strokeColor=#005700;strokeWidth=1;startArrow=diamondThin;startFill=1;endArrow=open;endFill=0;startSize=10;endSize=8;targetPerimeterSpacing=0;fillColor=#008a00;" parent="1" source="167" edge="1">
                    <mxGeometry relative="1" as="geometry">
                        <mxPoint x="1180" y="-700" as="targetPoint"/>
                        <Array as="points">
                            <mxPoint x="1000" y="-620"/>
                            <mxPoint x="1180" y="-620"/>
                        </Array>
                    </mxGeometry>
                </mxCell>
                <mxCell id="167" value="CreatePost" style="swimlane;fontStyle=1;align=center;verticalAlign=top;childLayout=stackLayout;horizontal=1;startSize=26;horizontalStack=0;resizeParent=1;resizeParentMax=0;resizeLast=0;collapsible=1;marginBottom=0;" parent="1" vertex="1">
                    <mxGeometry x="922.5" y="-503" width="200" height="56" as="geometry"/>
                </mxCell>
                <mxCell id="168" value="+ execute(req, res): Promise&lt;void&gt;" style="text;strokeColor=none;fillColor=none;align=left;verticalAlign=top;spacingLeft=4;spacingRight=4;overflow=hidden;rotatable=0;points=[[0,0.5],[1,0.5]];portConstraint=eastwest;" parent="167" vertex="1">
                    <mxGeometry y="26" width="200" height="30" as="geometry"/>
                </mxCell>
                <mxCell id="208" style="edgeStyle=orthogonalEdgeStyle;rounded=0;html=1;entryX=1;entryY=0.5;entryDx=0;entryDy=0;strokeWidth=1;endArrow=open;endFill=0;endSize=8;startArrow=diamondThin;startFill=1;startSize=10;" parent="1" source="31" target="167" edge="1">
                    <mxGeometry relative="1" as="geometry">
                        <Array as="points">
                            <mxPoint x="1160" y="-475"/>
                        </Array>
                    </mxGeometry>
                </mxCell>
                <mxCell id="197" style="edgeStyle=orthogonalEdgeStyle;rounded=0;html=1;dashed=1;endArrow=block;endFill=0;entryX=1;entryY=0.5;entryDx=0;entryDy=0;endSize=8;" parent="1" source="173" target="166" edge="1">
                    <mxGeometry relative="1" as="geometry">
                        <mxPoint x="1220" y="-470" as="targetPoint"/>
                        <Array as="points">
                            <mxPoint x="870" y="-392"/>
                            <mxPoint x="870" y="-475"/>
                        </Array>
                    </mxGeometry>
                </mxCell>
                <mxCell id="350" style="edgeStyle=orthogonalEdgeStyle;rounded=0;html=1;strokeColor=#B20000;strokeWidth=1;startArrow=diamondThin;startFill=1;endArrow=open;endFill=0;startSize=10;endSize=8;targetPerimeterSpacing=0;fillColor=#e51400;" parent="1" source="173" edge="1">
                    <mxGeometry relative="1" as="geometry">
                        <mxPoint x="1200" y="-529" as="targetPoint"/>
                        <Array as="points">
                            <mxPoint x="1200" y="-400"/>
                        </Array>
                    </mxGeometry>
                </mxCell>
                <mxCell id="351" style="edgeStyle=orthogonalEdgeStyle;rounded=0;html=1;strokeColor=#005700;strokeWidth=1;startArrow=diamondThin;startFill=1;endArrow=open;endFill=0;startSize=10;endSize=8;targetPerimeterSpacing=0;fillColor=#008a00;" parent="1" source="173" edge="1">
                    <mxGeometry relative="1" as="geometry">
                        <mxPoint x="1180.0000000000002" y="-700" as="targetPoint"/>
                        <Array as="points">
                            <mxPoint x="1180" y="-410"/>
                        </Array>
                    </mxGeometry>
                </mxCell>
                <mxCell id="173" value="CreatePostWithImage" style="swimlane;fontStyle=1;align=center;verticalAlign=top;childLayout=stackLayout;horizontal=1;startSize=26;horizontalStack=0;resizeParent=1;resizeParentMax=0;resizeLast=0;collapsible=1;marginBottom=0;" parent="1" vertex="1">
                    <mxGeometry x="922.5" y="-420" width="210" height="56" as="geometry"/>
                </mxCell>
                <mxCell id="174" value="+ execute(req, res): Promise&lt;void&gt;" style="text;strokeColor=none;fillColor=none;align=left;verticalAlign=top;spacingLeft=4;spacingRight=4;overflow=hidden;rotatable=0;points=[[0,0.5],[1,0.5]];portConstraint=eastwest;" parent="173" vertex="1">
                    <mxGeometry y="26" width="210" height="30" as="geometry"/>
                </mxCell>
                <mxCell id="207" style="edgeStyle=orthogonalEdgeStyle;rounded=0;html=1;entryX=1;entryY=0.5;entryDx=0;entryDy=0;strokeWidth=1;endArrow=open;endFill=0;endSize=8;startArrow=diamondThin;startFill=1;startSize=10;" parent="1" source="31" target="173" edge="1">
                    <mxGeometry relative="1" as="geometry">
                        <Array as="points">
                            <mxPoint x="1160" y="-392"/>
                        </Array>
                    </mxGeometry>
                </mxCell>
                <mxCell id="198" style="edgeStyle=orthogonalEdgeStyle;rounded=0;html=1;dashed=1;endArrow=block;endFill=0;endSize=8;" parent="1" source="182" edge="1">
                    <mxGeometry relative="1" as="geometry">
                        <mxPoint x="870" y="-390" as="targetPoint"/>
                        <Array as="points">
                            <mxPoint x="870" y="-312"/>
                        </Array>
                    </mxGeometry>
                </mxCell>
                <mxCell id="182" value="DeletePost" style="swimlane;fontStyle=1;childLayout=stackLayout;horizontal=1;startSize=26;fillColor=none;horizontalStack=0;resizeParent=1;resizeParentMax=0;resizeLast=0;collapsible=1;marginBottom=0;" parent="1" vertex="1">
                    <mxGeometry x="922.5" y="-340" width="200" height="56" as="geometry"/>
                </mxCell>
                <mxCell id="183" value="+ execute(req, res): Promise&lt;void&gt;" style="text;strokeColor=none;fillColor=none;align=left;verticalAlign=top;spacingLeft=4;spacingRight=4;overflow=hidden;rotatable=0;points=[[0,0.5],[1,0.5]];portConstraint=eastwest;" parent="182" vertex="1">
                    <mxGeometry y="26" width="200" height="30" as="geometry"/>
                </mxCell>
                <mxCell id="206" style="edgeStyle=orthogonalEdgeStyle;rounded=0;html=1;strokeWidth=1;endArrow=open;endFill=0;entryX=1;entryY=0.063;entryDx=0;entryDy=0;entryPerimeter=0;endSize=8;startArrow=diamondThin;startFill=1;startSize=10;" parent="1" source="31" target="183" edge="1">
                    <mxGeometry relative="1" as="geometry">
                        <mxPoint x="1090" y="-300" as="targetPoint"/>
                        <Array as="points">
                            <mxPoint x="1160" y="-313"/>
                        </Array>
                    </mxGeometry>
                </mxCell>
                <mxCell id="199" style="edgeStyle=orthogonalEdgeStyle;rounded=0;html=1;dashed=1;endArrow=block;endFill=0;endSize=8;" parent="1" source="187" edge="1">
                    <mxGeometry relative="1" as="geometry">
                        <mxPoint x="870" y="-310" as="targetPoint"/>
                        <Array as="points">
                            <mxPoint x="870" y="-232"/>
                        </Array>
                    </mxGeometry>
                </mxCell>
                <mxCell id="352" style="edgeStyle=orthogonalEdgeStyle;rounded=0;html=1;strokeColor=#B20000;strokeWidth=1;startArrow=diamondThin;startFill=1;endArrow=open;endFill=0;startSize=10;endSize=8;targetPerimeterSpacing=0;fillColor=#e51400;" parent="1" source="187" edge="1">
                    <mxGeometry relative="1" as="geometry">
                        <mxPoint x="1200" y="-400" as="targetPoint"/>
                        <Array as="points">
                            <mxPoint x="1200" y="-250"/>
                        </Array>
                    </mxGeometry>
                </mxCell>
                <mxCell id="187" value="GetPost" style="swimlane;fontStyle=1;childLayout=stackLayout;horizontal=1;startSize=26;fillColor=none;horizontalStack=0;resizeParent=1;resizeParentMax=0;resizeLast=0;collapsible=1;marginBottom=0;" parent="1" vertex="1">
                    <mxGeometry x="922.5" y="-260" width="200" height="56" as="geometry"/>
                </mxCell>
                <mxCell id="188" value="+ execute(req, res): Promise&lt;void&gt;" style="text;strokeColor=none;fillColor=none;align=left;verticalAlign=top;spacingLeft=4;spacingRight=4;overflow=hidden;rotatable=0;points=[[0,0.5],[1,0.5]];portConstraint=eastwest;" parent="187" vertex="1">
                    <mxGeometry y="26" width="200" height="30" as="geometry"/>
                </mxCell>
                <mxCell id="205" style="edgeStyle=orthogonalEdgeStyle;rounded=0;html=1;entryX=1;entryY=0.107;entryDx=0;entryDy=0;entryPerimeter=0;strokeWidth=1;endArrow=open;endFill=0;endSize=8;startArrow=diamondThin;startFill=1;startSize=10;" parent="1" source="31" target="188" edge="1">
                    <mxGeometry relative="1" as="geometry">
                        <Array as="points">
                            <mxPoint x="1160" y="-231"/>
                        </Array>
                    </mxGeometry>
                </mxCell>
                <mxCell id="202" style="edgeStyle=orthogonalEdgeStyle;rounded=0;html=1;dashed=1;strokeWidth=1;endArrow=block;endFill=0;endSize=8;" parent="1" source="189" edge="1">
                    <mxGeometry relative="1" as="geometry">
                        <mxPoint x="870" y="-230" as="targetPoint"/>
                        <Array as="points">
                            <mxPoint x="870" y="-162"/>
                            <mxPoint x="870" y="-230"/>
                        </Array>
                    </mxGeometry>
                </mxCell>
                <mxCell id="353" style="edgeStyle=orthogonalEdgeStyle;rounded=0;html=1;strokeColor=#B20000;strokeWidth=1;startArrow=diamondThin;startFill=1;endArrow=open;endFill=0;startSize=10;endSize=8;targetPerimeterSpacing=0;fillColor=#e51400;" parent="1" source="189" edge="1">
                    <mxGeometry relative="1" as="geometry">
                        <mxPoint x="1200.0000000000002" y="-250" as="targetPoint"/>
                        <Array as="points">
                            <mxPoint x="1200" y="-180"/>
                        </Array>
                    </mxGeometry>
                </mxCell>
                <mxCell id="189" value="GetPosts" style="swimlane;fontStyle=1;childLayout=stackLayout;horizontal=1;startSize=26;fillColor=none;horizontalStack=0;resizeParent=1;resizeParentMax=0;resizeLast=0;collapsible=1;marginBottom=0;" parent="1" vertex="1">
                    <mxGeometry x="922.5" y="-190" width="200" height="56" as="geometry"/>
                </mxCell>
                <mxCell id="190" value="+ execute(req, res): Promise&lt;void&gt;" style="text;strokeColor=none;fillColor=none;align=left;verticalAlign=top;spacingLeft=4;spacingRight=4;overflow=hidden;rotatable=0;points=[[0,0.5],[1,0.5]];portConstraint=eastwest;" parent="189" vertex="1">
                    <mxGeometry y="26" width="200" height="30" as="geometry"/>
                </mxCell>
                <mxCell id="204" style="edgeStyle=orthogonalEdgeStyle;rounded=0;html=1;entryX=1;entryY=0.5;entryDx=0;entryDy=0;strokeWidth=1;endArrow=open;endFill=0;endSize=8;startArrow=diamondThin;startFill=1;startSize=10;" parent="1" source="31" target="189" edge="1">
                    <mxGeometry relative="1" as="geometry">
                        <Array as="points">
                            <mxPoint x="1160" y="-162"/>
                        </Array>
                    </mxGeometry>
                </mxCell>
                <mxCell id="201" style="edgeStyle=orthogonalEdgeStyle;rounded=0;html=1;dashed=1;endArrow=block;endFill=0;endSize=8;" parent="1" source="191" edge="1">
                    <mxGeometry relative="1" as="geometry">
                        <mxPoint x="870" y="-160" as="targetPoint"/>
                        <Array as="points">
                            <mxPoint x="870" y="-82"/>
                            <mxPoint x="870" y="-160"/>
                        </Array>
                    </mxGeometry>
                </mxCell>
                <mxCell id="347" style="edgeStyle=orthogonalEdgeStyle;rounded=0;html=1;strokeColor=#005700;strokeWidth=1;startArrow=diamondThin;startFill=1;endArrow=open;endFill=0;startSize=10;endSize=8;targetPerimeterSpacing=0;fillColor=#008a00;" parent="1" source="191" edge="1">
                    <mxGeometry relative="1" as="geometry">
                        <mxPoint x="1240" y="-700" as="targetPoint"/>
                        <Array as="points">
                            <mxPoint x="1240" y="-90"/>
                        </Array>
                    </mxGeometry>
                </mxCell>
                <mxCell id="354" style="edgeStyle=orthogonalEdgeStyle;rounded=0;html=1;strokeColor=#B20000;strokeWidth=1;startArrow=diamondThin;startFill=1;endArrow=open;endFill=0;startSize=10;endSize=8;targetPerimeterSpacing=0;fillColor=#e51400;" parent="1" source="191" edge="1">
                    <mxGeometry relative="1" as="geometry">
                        <mxPoint x="1200.0000000000002" y="-180" as="targetPoint"/>
                        <Array as="points">
                            <mxPoint x="1200" y="-100"/>
                        </Array>
                    </mxGeometry>
                </mxCell>
                <mxCell id="191" value="UpdatePost" style="swimlane;fontStyle=1;childLayout=stackLayout;horizontal=1;startSize=26;fillColor=none;horizontalStack=0;resizeParent=1;resizeParentMax=0;resizeLast=0;collapsible=1;marginBottom=0;" parent="1" vertex="1">
                    <mxGeometry x="922.5" y="-110" width="200" height="56" as="geometry"/>
                </mxCell>
                <mxCell id="192" value="+ execute(req, res): Promise&lt;void&gt;" style="text;strokeColor=none;fillColor=none;align=left;verticalAlign=top;spacingLeft=4;spacingRight=4;overflow=hidden;rotatable=0;points=[[0,0.5],[1,0.5]];portConstraint=eastwest;" parent="191" vertex="1">
                    <mxGeometry y="26" width="200" height="30" as="geometry"/>
                </mxCell>
                <mxCell id="203" style="edgeStyle=orthogonalEdgeStyle;rounded=0;html=1;entryX=1;entryY=0.5;entryDx=0;entryDy=0;strokeWidth=1;endArrow=open;endFill=0;endSize=8;startArrow=diamondThin;startFill=1;startSize=10;" parent="1" source="31" target="191" edge="1">
                    <mxGeometry relative="1" as="geometry">
                        <Array as="points">
                            <mxPoint x="1160" y="-82"/>
                        </Array>
                    </mxGeometry>
                </mxCell>
                <mxCell id="234" style="edgeStyle=orthogonalEdgeStyle;rounded=0;html=1;dashed=1;strokeWidth=1;endArrow=block;endFill=0;endSize=8;" parent="1" source="210" edge="1">
                    <mxGeometry relative="1" as="geometry">
                        <mxPoint x="580" y="-550" as="targetPoint"/>
                    </mxGeometry>
                </mxCell>
                <mxCell id="210" value="Login" style="swimlane;fontStyle=1;align=center;verticalAlign=top;childLayout=stackLayout;horizontal=1;startSize=26;horizontalStack=0;resizeParent=1;resizeParentMax=0;resizeLast=0;collapsible=1;marginBottom=0;" parent="1" vertex="1">
                    <mxGeometry x="320" y="-660" width="200" height="56" as="geometry"/>
                </mxCell>
                <mxCell id="211" value="+ execute(req, res): Promise&lt;void&gt;" style="text;strokeColor=none;fillColor=none;align=left;verticalAlign=top;spacingLeft=4;spacingRight=4;overflow=hidden;rotatable=0;points=[[0,0.5],[1,0.5]];portConstraint=eastwest;" parent="210" vertex="1">
                    <mxGeometry y="26" width="200" height="30" as="geometry"/>
                </mxCell>
                <mxCell id="244" style="edgeStyle=orthogonalEdgeStyle;rounded=0;html=1;entryX=0;entryY=0.5;entryDx=0;entryDy=0;strokeWidth=1;endArrow=open;endFill=0;endSize=8;startArrow=diamondThin;startFill=1;startSize=10;" parent="1" source="3" target="210" edge="1">
                    <mxGeometry relative="1" as="geometry">
                        <Array as="points">
                            <mxPoint x="270" y="-632"/>
                        </Array>
                    </mxGeometry>
                </mxCell>
                <mxCell id="233" style="edgeStyle=orthogonalEdgeStyle;rounded=0;html=1;entryX=0;entryY=0.5;entryDx=0;entryDy=0;dashed=1;strokeWidth=1;endArrow=block;endFill=0;endSize=8;" parent="1" source="212" target="166" edge="1">
                    <mxGeometry relative="1" as="geometry">
                        <Array as="points">
                            <mxPoint x="580" y="-550"/>
                            <mxPoint x="580" y="-475"/>
                        </Array>
                    </mxGeometry>
                </mxCell>
                <mxCell id="212" value="RefreshAccessToken" style="swimlane;fontStyle=1;align=center;verticalAlign=top;childLayout=stackLayout;horizontal=1;startSize=26;horizontalStack=0;resizeParent=1;resizeParentMax=0;resizeLast=0;collapsible=1;marginBottom=0;" parent="1" vertex="1">
                    <mxGeometry x="320" y="-580" width="210" height="56" as="geometry"/>
                </mxCell>
                <mxCell id="213" value="+ execute(req, res): Promise&lt;void&gt;" style="text;strokeColor=none;fillColor=none;align=left;verticalAlign=top;spacingLeft=4;spacingRight=4;overflow=hidden;rotatable=0;points=[[0,0.5],[1,0.5]];portConstraint=eastwest;" parent="212" vertex="1">
                    <mxGeometry y="26" width="210" height="30" as="geometry"/>
                </mxCell>
                <mxCell id="242" style="edgeStyle=orthogonalEdgeStyle;rounded=0;html=1;entryX=-0.002;entryY=0.072;entryDx=0;entryDy=0;entryPerimeter=0;strokeWidth=1;endArrow=open;endFill=0;endSize=8;startArrow=diamondThin;startFill=1;startSize=10;" parent="1" source="3" target="213" edge="1">
                    <mxGeometry relative="1" as="geometry">
                        <Array as="points">
                            <mxPoint x="270" y="-552"/>
                        </Array>
                    </mxGeometry>
                </mxCell>
                <mxCell id="229" style="edgeStyle=orthogonalEdgeStyle;rounded=0;html=1;entryX=0;entryY=0.5;entryDx=0;entryDy=0;dashed=1;strokeWidth=1;endArrow=block;endFill=0;endSize=8;" parent="1" source="214" target="166" edge="1">
                    <mxGeometry relative="1" as="geometry">
                        <Array as="points">
                            <mxPoint x="530" y="-475"/>
                            <mxPoint x="530" y="-475"/>
                        </Array>
                    </mxGeometry>
                </mxCell>
                <mxCell id="214" value="GetUser" style="swimlane;fontStyle=1;childLayout=stackLayout;horizontal=1;startSize=26;fillColor=none;horizontalStack=0;resizeParent=1;resizeParentMax=0;resizeLast=0;collapsible=1;marginBottom=0;" parent="1" vertex="1">
                    <mxGeometry x="320" y="-503" width="200" height="56" as="geometry"/>
                </mxCell>
                <mxCell id="215" value="+ execute(req, res): Promise&lt;void&gt;" style="text;strokeColor=none;fillColor=none;align=left;verticalAlign=top;spacingLeft=4;spacingRight=4;overflow=hidden;rotatable=0;points=[[0,0.5],[1,0.5]];portConstraint=eastwest;" parent="214" vertex="1">
                    <mxGeometry y="26" width="200" height="30" as="geometry"/>
                </mxCell>
                <mxCell id="241" style="edgeStyle=orthogonalEdgeStyle;rounded=0;html=1;entryX=0;entryY=0.5;entryDx=0;entryDy=0;strokeWidth=1;endArrow=open;endFill=0;endSize=8;startArrow=diamondThin;startFill=1;startSize=10;" parent="1" source="3" target="214" edge="1">
                    <mxGeometry relative="1" as="geometry">
                        <Array as="points">
                            <mxPoint x="270" y="-475"/>
                        </Array>
                    </mxGeometry>
                </mxCell>
                <mxCell id="232" style="edgeStyle=orthogonalEdgeStyle;rounded=0;html=1;dashed=1;strokeWidth=1;endArrow=block;endFill=0;entryX=0;entryY=0.5;entryDx=0;entryDy=0;endSize=8;" parent="1" source="216" target="166" edge="1">
                    <mxGeometry relative="1" as="geometry">
                        <mxPoint x="570" y="-470" as="targetPoint"/>
                        <Array as="points">
                            <mxPoint x="570" y="-392"/>
                            <mxPoint x="570" y="-475"/>
                        </Array>
                    </mxGeometry>
                </mxCell>
                <mxCell id="216" value="GetUserByEmail" style="swimlane;fontStyle=1;childLayout=stackLayout;horizontal=1;startSize=26;fillColor=none;horizontalStack=0;resizeParent=1;resizeParentMax=0;resizeLast=0;collapsible=1;marginBottom=0;" parent="1" vertex="1">
                    <mxGeometry x="320" y="-420" width="200" height="56" as="geometry"/>
                </mxCell>
                <mxCell id="217" value="+ execute(req, res): Promise&lt;void&gt;" style="text;strokeColor=none;fillColor=none;align=left;verticalAlign=top;spacingLeft=4;spacingRight=4;overflow=hidden;rotatable=0;points=[[0,0.5],[1,0.5]];portConstraint=eastwest;" parent="216" vertex="1">
                    <mxGeometry y="26" width="200" height="30" as="geometry"/>
                </mxCell>
                <mxCell id="240" style="edgeStyle=orthogonalEdgeStyle;rounded=0;html=1;entryX=0.007;entryY=0.044;entryDx=0;entryDy=0;entryPerimeter=0;strokeWidth=1;endArrow=open;endFill=0;endSize=8;startArrow=diamondThin;startFill=1;startSize=10;" parent="1" source="3" target="217" edge="1">
                    <mxGeometry relative="1" as="geometry">
                        <Array as="points">
                            <mxPoint x="270" y="-393"/>
                        </Array>
                    </mxGeometry>
                </mxCell>
                <mxCell id="231" style="edgeStyle=orthogonalEdgeStyle;rounded=0;html=1;dashed=1;strokeWidth=1;endArrow=block;endFill=0;endSize=8;" parent="1" source="218" edge="1">
                    <mxGeometry relative="1" as="geometry">
                        <mxPoint x="570" y="-390" as="targetPoint"/>
                    </mxGeometry>
                </mxCell>
                <mxCell id="218" value="GetUsers" style="swimlane;fontStyle=1;childLayout=stackLayout;horizontal=1;startSize=26;fillColor=none;horizontalStack=0;resizeParent=1;resizeParentMax=0;resizeLast=0;collapsible=1;marginBottom=0;" parent="1" vertex="1">
                    <mxGeometry x="320" y="-340" width="200" height="56" as="geometry"/>
                </mxCell>
                <mxCell id="219" value="+ execute(req, res): Promise&lt;void&gt;" style="text;strokeColor=none;fillColor=none;align=left;verticalAlign=top;spacingLeft=4;spacingRight=4;overflow=hidden;rotatable=0;points=[[0,0.5],[1,0.5]];portConstraint=eastwest;" parent="218" vertex="1">
                    <mxGeometry y="26" width="200" height="30" as="geometry"/>
                </mxCell>
                <mxCell id="239" style="edgeStyle=orthogonalEdgeStyle;rounded=0;html=1;entryX=0.007;entryY=0.072;entryDx=0;entryDy=0;entryPerimeter=0;strokeWidth=1;endArrow=open;endFill=0;endSize=8;startArrow=diamondThin;startFill=1;startSize=10;" parent="1" source="3" target="219" edge="1">
                    <mxGeometry relative="1" as="geometry">
                        <Array as="points">
                            <mxPoint x="270" y="-312"/>
                        </Array>
                    </mxGeometry>
                </mxCell>
                <mxCell id="230" style="edgeStyle=orthogonalEdgeStyle;rounded=0;html=1;dashed=1;strokeWidth=1;endArrow=block;endFill=0;endSize=8;" parent="1" source="220" edge="1">
                    <mxGeometry relative="1" as="geometry">
                        <mxPoint x="570" y="-310" as="targetPoint"/>
                    </mxGeometry>
                </mxCell>
                <mxCell id="220" value="Logout" style="swimlane;fontStyle=1;childLayout=stackLayout;horizontal=1;startSize=26;fillColor=none;horizontalStack=0;resizeParent=1;resizeParentMax=0;resizeLast=0;collapsible=1;marginBottom=0;" parent="1" vertex="1">
                    <mxGeometry x="320" y="-260" width="200" height="56" as="geometry"/>
                </mxCell>
                <mxCell id="221" value="+ execute(req, res): Promise&lt;void&gt;" style="text;strokeColor=none;fillColor=none;align=left;verticalAlign=top;spacingLeft=4;spacingRight=4;overflow=hidden;rotatable=0;points=[[0,0.5],[1,0.5]];portConstraint=eastwest;" parent="220" vertex="1">
                    <mxGeometry y="26" width="200" height="30" as="geometry"/>
                </mxCell>
                <mxCell id="238" style="edgeStyle=orthogonalEdgeStyle;rounded=0;html=1;entryX=0;entryY=0.5;entryDx=0;entryDy=0;strokeWidth=1;endArrow=open;endFill=0;endSize=8;startArrow=diamondThin;startFill=1;startSize=10;" parent="1" source="3" target="220" edge="1">
                    <mxGeometry relative="1" as="geometry">
                        <Array as="points">
                            <mxPoint x="270" y="-232"/>
                        </Array>
                    </mxGeometry>
                </mxCell>
                <mxCell id="228" style="edgeStyle=orthogonalEdgeStyle;rounded=0;html=1;dashed=1;strokeWidth=1;endArrow=block;endFill=0;endSize=8;" parent="1" source="223" edge="1">
                    <mxGeometry relative="1" as="geometry">
                        <mxPoint x="570" y="-230" as="targetPoint"/>
                    </mxGeometry>
                </mxCell>
                <mxCell id="223" value="Register" style="swimlane;fontStyle=1;childLayout=stackLayout;horizontal=1;startSize=26;fillColor=none;horizontalStack=0;resizeParent=1;resizeParentMax=0;resizeLast=0;collapsible=1;marginBottom=0;" parent="1" vertex="1">
                    <mxGeometry x="320" y="-180" width="200" height="56" as="geometry"/>
                </mxCell>
                <mxCell id="224" value="+ execute(req, res): Promise&lt;void&gt;" style="text;strokeColor=none;fillColor=none;align=left;verticalAlign=top;spacingLeft=4;spacingRight=4;overflow=hidden;rotatable=0;points=[[0,0.5],[1,0.5]];portConstraint=eastwest;" parent="223" vertex="1">
                    <mxGeometry y="26" width="200" height="30" as="geometry"/>
                </mxCell>
                <mxCell id="237" style="edgeStyle=orthogonalEdgeStyle;rounded=0;html=1;entryX=0;entryY=0.5;entryDx=0;entryDy=0;strokeWidth=1;endArrow=open;endFill=0;endSize=8;startArrow=diamondThin;startFill=1;startSize=10;" parent="1" source="3" target="223" edge="1">
                    <mxGeometry relative="1" as="geometry">
                        <Array as="points">
                            <mxPoint x="270" y="-152"/>
                        </Array>
                    </mxGeometry>
                </mxCell>
                <mxCell id="227" style="edgeStyle=orthogonalEdgeStyle;rounded=0;html=1;dashed=1;strokeWidth=1;endArrow=block;endFill=0;endSize=8;" parent="1" source="225" edge="1">
                    <mxGeometry relative="1" as="geometry">
                        <mxPoint x="570" y="-150" as="targetPoint"/>
                    </mxGeometry>
                </mxCell>
                <mxCell id="225" value="UpdateUser" style="swimlane;fontStyle=1;childLayout=stackLayout;horizontal=1;startSize=26;fillColor=none;horizontalStack=0;resizeParent=1;resizeParentMax=0;resizeLast=0;collapsible=1;marginBottom=0;" parent="1" vertex="1">
                    <mxGeometry x="320" y="-100" width="200" height="56" as="geometry"/>
                </mxCell>
                <mxCell id="226" value="+ execute(req, res): Promise&lt;void&gt;" style="text;strokeColor=none;fillColor=none;align=left;verticalAlign=top;spacingLeft=4;spacingRight=4;overflow=hidden;rotatable=0;points=[[0,0.5],[1,0.5]];portConstraint=eastwest;" parent="225" vertex="1">
                    <mxGeometry y="26" width="200" height="30" as="geometry"/>
                </mxCell>
                <mxCell id="236" style="edgeStyle=orthogonalEdgeStyle;rounded=0;html=1;entryX=0;entryY=0.5;entryDx=0;entryDy=0;strokeWidth=1;endArrow=open;endFill=0;endSize=8;startArrow=diamondThin;startFill=1;startSize=10;" parent="1" source="3" target="225" edge="1">
                    <mxGeometry relative="1" as="geometry">
                        <Array as="points">
                            <mxPoint x="270" y="-72"/>
                        </Array>
                    </mxGeometry>
                </mxCell>
                <mxCell id="245" value="ReactStrategyContext" style="swimlane;fontStyle=1;align=center;verticalAlign=top;childLayout=stackLayout;horizontal=1;startSize=26;horizontalStack=0;resizeParent=1;resizeParentMax=0;resizeLast=0;collapsible=1;marginBottom=0;" parent="1" vertex="1">
                    <mxGeometry x="948.75" y="427" width="177.5" height="86" as="geometry"/>
                </mxCell>
                <mxCell id="246" value="- strategy: IStrategy" style="text;strokeColor=none;fillColor=none;align=left;verticalAlign=top;spacingLeft=4;spacingRight=4;overflow=hidden;rotatable=0;points=[[0,0.5],[1,0.5]];portConstraint=eastwest;" parent="245" vertex="1">
                    <mxGeometry y="26" width="177.5" height="26" as="geometry"/>
                </mxCell>
                <mxCell id="247" value="" style="line;strokeWidth=1;fillColor=none;align=left;verticalAlign=middle;spacingTop=-1;spacingLeft=3;spacingRight=3;rotatable=0;labelPosition=right;points=[];portConstraint=eastwest;strokeColor=inherit;" parent="245" vertex="1">
                    <mxGeometry y="52" width="177.5" height="8" as="geometry"/>
                </mxCell>
                <mxCell id="248" value="+ performAction(req, res): void" style="text;strokeColor=none;fillColor=none;align=left;verticalAlign=top;spacingLeft=4;spacingRight=4;overflow=hidden;rotatable=0;points=[[0,0.5],[1,0.5]];portConstraint=eastwest;" parent="245" vertex="1">
                    <mxGeometry y="60" width="177.5" height="26" as="geometry"/>
                </mxCell>
                <mxCell id="249" style="edgeStyle=orthogonalEdgeStyle;rounded=0;html=1;strokeWidth=1;endArrow=open;endFill=0;endSize=8;startArrow=diamondThin;startFill=1;startSize=9;entryX=0.5;entryY=0;entryDx=0;entryDy=0;" parent="1" source="31" target="245" edge="1">
                    <mxGeometry relative="1" as="geometry">
                        <mxPoint x="1040" y="395" as="targetPoint"/>
                        <Array as="points">
                            <mxPoint x="1038" y="405"/>
                            <mxPoint x="1038" y="405"/>
                        </Array>
                    </mxGeometry>
                </mxCell>
                <mxCell id="250" value="&lt;p style=&quot;margin:0px;margin-top:4px;text-align:center;&quot;&gt;&lt;i&gt;&amp;lt;&amp;lt;Interface&amp;gt;&amp;gt;&lt;/i&gt;&lt;br&gt;&lt;b&gt;IStrategy&lt;/b&gt;&lt;/p&gt;&lt;hr size=&quot;1&quot;&gt;&lt;p style=&quot;margin:0px;margin-left:4px;&quot;&gt;+ performAction(req, res): Promise&amp;lt;void&amp;gt;&lt;/p&gt;" style="verticalAlign=top;align=left;overflow=fill;fontSize=12;fontFamily=Helvetica;html=1;" parent="1" vertex="1">
                    <mxGeometry x="922.5" y="574" width="230" height="70" as="geometry"/>
                </mxCell>
                <mxCell id="251" style="edgeStyle=orthogonalEdgeStyle;rounded=0;html=1;entryX=0.5;entryY=0;entryDx=0;entryDy=0;strokeWidth=1;endArrow=open;endFill=0;startArrow=diamondThin;startFill=0;targetPerimeterSpacing=0;startSize=10;endSize=8;" parent="1" source="245" target="250" edge="1">
                    <mxGeometry relative="1" as="geometry"/>
                </mxCell>
                <mxCell id="260" style="edgeStyle=orthogonalEdgeStyle;rounded=0;html=1;strokeWidth=1;startArrow=none;startFill=0;endArrow=block;endFill=0;startSize=10;endSize=8;targetPerimeterSpacing=0;strokeColor=default;dashed=1;" parent="1" source="252" edge="1">
                    <mxGeometry relative="1" as="geometry">
                        <mxPoint x="1186" y="527" as="targetPoint"/>
                    </mxGeometry>
                </mxCell>
                <mxCell id="252" value="CommentStrategy" style="swimlane;fontStyle=1;childLayout=stackLayout;horizontal=1;startSize=26;fillColor=none;horizontalStack=0;resizeParent=1;resizeParentMax=0;resizeLast=0;collapsible=1;marginBottom=0;" parent="1" vertex="1">
                    <mxGeometry x="1220" y="425" width="237.5" height="52" as="geometry"/>
                </mxCell>
                <mxCell id="253" value="+ performAction(req, res): Promise&lt;void&gt;" style="text;strokeColor=none;fillColor=none;align=left;verticalAlign=top;spacingLeft=4;spacingRight=4;overflow=hidden;rotatable=0;points=[[0,0.5],[1,0.5]];portConstraint=eastwest;" parent="252" vertex="1">
                    <mxGeometry y="26" width="237.5" height="26" as="geometry"/>
                </mxCell>
                <mxCell id="261" style="edgeStyle=orthogonalEdgeStyle;rounded=0;html=1;strokeWidth=1;startArrow=none;startFill=0;endArrow=block;endFill=0;startSize=10;endSize=8;targetPerimeterSpacing=0;dashed=1;" parent="1" source="256" edge="1">
                    <mxGeometry relative="1" as="geometry">
                        <mxPoint x="1186" y="607" as="targetPoint"/>
                    </mxGeometry>
                </mxCell>
                <mxCell id="256" value="LikeStrategy" style="swimlane;fontStyle=1;childLayout=stackLayout;horizontal=1;startSize=26;fillColor=none;horizontalStack=0;resizeParent=1;resizeParentMax=0;resizeLast=0;collapsible=1;marginBottom=0;" parent="1" vertex="1">
                    <mxGeometry x="1220" y="505" width="237.5" height="52" as="geometry"/>
                </mxCell>
                <mxCell id="257" value="+ performAction(req, res): Promise&lt;void&gt;" style="text;strokeColor=none;fillColor=none;align=left;verticalAlign=top;spacingLeft=4;spacingRight=4;overflow=hidden;rotatable=0;points=[[0,0.5],[1,0.5]];portConstraint=eastwest;" parent="256" vertex="1">
                    <mxGeometry y="26" width="237.5" height="26" as="geometry"/>
                </mxCell>
                <mxCell id="262" style="edgeStyle=orthogonalEdgeStyle;rounded=0;html=1;strokeWidth=1;startArrow=none;startFill=0;endArrow=block;endFill=0;startSize=10;endSize=8;targetPerimeterSpacing=0;entryX=1;entryY=0.5;entryDx=0;entryDy=0;dashed=1;" parent="1" source="258" target="250" edge="1">
                    <mxGeometry relative="1" as="geometry">
                        <mxPoint x="1150" y="609" as="targetPoint"/>
                    </mxGeometry>
                </mxCell>
                <mxCell id="258" value="DislikeStrategy" style="swimlane;fontStyle=1;childLayout=stackLayout;horizontal=1;startSize=26;fillColor=none;horizontalStack=0;resizeParent=1;resizeParentMax=0;resizeLast=0;collapsible=1;marginBottom=0;" parent="1" vertex="1">
                    <mxGeometry x="1220" y="583" width="237.5" height="52" as="geometry"/>
                </mxCell>
                <mxCell id="259" value="+ performAction(req, res): Promise&lt;void&gt;" style="text;strokeColor=none;fillColor=none;align=left;verticalAlign=top;spacingLeft=4;spacingRight=4;overflow=hidden;rotatable=0;points=[[0,0.5],[1,0.5]];portConstraint=eastwest;" parent="258" vertex="1">
                    <mxGeometry y="26" width="237.5" height="26" as="geometry"/>
                </mxCell>
                <mxCell id="328" value="&lt;p style=&quot;margin:0px;margin-top:4px;text-align:center;&quot;&gt;&lt;i&gt;&amp;lt;&amp;lt;Interface&amp;gt;&amp;gt;&lt;/i&gt;&lt;br&gt;&lt;b&gt;IPostBuilder&lt;/b&gt;&lt;/p&gt;&lt;p style=&quot;margin:0px;margin-left:4px;&quot;&gt;&lt;/p&gt;&lt;p style=&quot;margin:0px;margin-left:4px;&quot;&gt;+ setCreator(creator: ISimpleUser): IPostBuilder&lt;/p&gt;&lt;p style=&quot;margin:0px;margin-left:4px;&quot;&gt;+ setTitle(title: string): IPostBuilder&lt;/p&gt;&lt;p style=&quot;margin:0px;margin-left:4px;&quot;&gt;+ setContent(content: string): IPostBuilder&lt;/p&gt;&lt;p style=&quot;margin:0px;margin-left:4px;&quot;&gt;+ setImage(image: string): IPostBuilder&lt;/p&gt;&lt;p style=&quot;margin:0px;margin-left:4px;&quot;&gt;+ setUpdateAt(updateAt: Date): IPostBuilder&lt;/p&gt;&lt;p style=&quot;margin:0px;margin-left:4px;&quot;&gt;&lt;br&gt;&lt;/p&gt;&lt;p style=&quot;margin:0px;margin-left:4px;&quot;&gt;+ buildSimplePost(): IBasicPost&lt;/p&gt;&lt;p style=&quot;margin:0px;margin-left:4px;&quot;&gt;+ buildPostWithImage(): IImagePost&lt;/p&gt;&lt;p style=&quot;margin:0px;margin-left:4px;&quot;&gt;+ buildUpdate(): IPostUpdate&lt;/p&gt;" style="verticalAlign=top;align=left;overflow=fill;fontSize=12;fontFamily=Helvetica;html=1;" parent="1" vertex="1">
                    <mxGeometry x="1450" y="-840" width="270" height="170" as="geometry"/>
                </mxCell>
                <mxCell id="344" value="" style="edgeStyle=orthogonalEdgeStyle;rounded=0;html=1;strokeColor=default;strokeWidth=1;startArrow=none;startFill=0;endArrow=open;endFill=0;startSize=10;endSize=8;sourcePerimeterSpacing=0;dashed=1;" parent="1" source="328" target="330" edge="1">
                    <mxGeometry relative="1" as="geometry"/>
                </mxCell>
                <mxCell id="330" value="&lt;p style=&quot;margin:0px;margin-top:4px;text-align:center;&quot;&gt;&lt;i&gt;&amp;lt;&amp;lt;Interface&amp;gt;&amp;gt;&lt;/i&gt;&lt;br&gt;&lt;b&gt;IBasicPost&lt;/b&gt;&lt;/p&gt;&lt;hr size=&quot;1&quot;&gt;&lt;p style=&quot;margin:0px;margin-left:4px;&quot;&gt;+ title: string&lt;br&gt;&lt;/p&gt;&lt;p style=&quot;margin:0px;margin-left:4px;&quot;&gt;+ content: string&lt;/p&gt;&lt;p style=&quot;margin:0px;margin-left:4px;&quot;&gt;+ creator: string&lt;/p&gt;" style="verticalAlign=top;align=left;overflow=fill;fontSize=12;fontFamily=Helvetica;html=1;" parent="1" vertex="1">
                    <mxGeometry x="1802.5" y="-840" width="112.5" height="90" as="geometry"/>
                </mxCell>
                <mxCell id="332" value="" style="edgeStyle=orthogonalEdgeStyle;rounded=0;html=1;strokeColor=default;strokeWidth=1;startArrow=none;startFill=0;endArrow=block;endFill=0;startSize=10;endSize=8;targetPerimeterSpacing=0;" parent="1" source="331" target="330" edge="1">
                    <mxGeometry relative="1" as="geometry"/>
                </mxCell>
                <mxCell id="331" value="&lt;p style=&quot;margin:0px;margin-top:4px;text-align:center;&quot;&gt;&lt;i&gt;&amp;lt;&amp;lt;Interface&amp;gt;&amp;gt;&lt;/i&gt;&lt;br&gt;&lt;b&gt;IImagePost&lt;/b&gt;&lt;/p&gt;&lt;hr size=&quot;1&quot;&gt;&lt;p style=&quot;margin:0px;margin-left:4px;&quot;&gt;+ image: string&lt;/p&gt;" style="verticalAlign=top;align=left;overflow=fill;fontSize=12;fontFamily=Helvetica;html=1;" parent="1" vertex="1">
                    <mxGeometry x="1805.63" y="-710" width="106.25" height="64" as="geometry"/>
                </mxCell>
                <mxCell id="333" value="&lt;p style=&quot;margin:0px;margin-top:4px;text-align:center;&quot;&gt;&lt;i&gt;&amp;lt;&amp;lt;Interface&amp;gt;&amp;gt;&lt;/i&gt;&lt;br&gt;&lt;b&gt;Interface&lt;/b&gt;&lt;/p&gt;&lt;hr size=&quot;1&quot;&gt;&lt;p style=&quot;margin:0px;margin-left:4px;&quot;&gt;+ title: string&lt;/p&gt;&lt;p style=&quot;margin:0px;margin-left:4px;&quot;&gt;+ content: string&lt;/p&gt;&lt;p style=&quot;margin:0px;margin-left:4px;&quot;&gt;+ image: string&lt;/p&gt;&lt;p style=&quot;margin:0px;margin-left:4px;&quot;&gt;+ updatedAt: Date&lt;/p&gt;" style="verticalAlign=top;align=left;overflow=fill;fontSize=12;fontFamily=Helvetica;html=1;" parent="1" vertex="1">
                    <mxGeometry x="1802.5" y="-990" width="120" height="110" as="geometry"/>
                </mxCell>
                <mxCell id="345" style="edgeStyle=orthogonalEdgeStyle;rounded=0;html=1;entryX=0;entryY=0.5;entryDx=0;entryDy=0;dashed=1;strokeColor=default;strokeWidth=1;startArrow=none;startFill=0;endArrow=open;endFill=0;startSize=10;endSize=8;targetPerimeterSpacing=0;" parent="1" source="328" target="333" edge="1">
                    <mxGeometry relative="1" as="geometry"/>
                </mxCell>
                <mxCell id="343" style="edgeStyle=orthogonalEdgeStyle;rounded=0;html=1;entryX=0;entryY=0.5;entryDx=0;entryDy=0;strokeColor=default;strokeWidth=1;startArrow=none;startFill=0;endArrow=block;endFill=0;startSize=10;endSize=8;targetPerimeterSpacing=0;dashed=1;" parent="1" source="338" target="328" edge="1">
                    <mxGeometry relative="1" as="geometry"/>
                </mxCell>
                <mxCell id="338" value="PostBuilder" style="swimlane;fontStyle=1;align=center;verticalAlign=top;childLayout=stackLayout;horizontal=1;startSize=26;horizontalStack=0;resizeParent=1;resizeParentMax=0;resizeLast=0;collapsible=1;marginBottom=0;" parent="1" vertex="1">
                    <mxGeometry x="1152.5" y="-810" width="160" height="110" as="geometry"/>
                </mxCell>
                <mxCell id="339" value="+ creator: ISimpleUser&#10;+ title: string&#10;+ content: string&#10;+ image: string&#10;+ updatedAt: Date" style="text;strokeColor=none;fillColor=none;align=left;verticalAlign=top;spacingLeft=4;spacingRight=4;overflow=hidden;rotatable=0;points=[[0,0.5],[1,0.5]];portConstraint=eastwest;" parent="338" vertex="1">
                    <mxGeometry y="26" width="160" height="84" as="geometry"/>
                </mxCell>
            </root>
        </mxGraphModel>
    </diagram>
</mxfile>